[Header]
FileType HTR
DataType HTRS
FileVersion 1
NumSegments 22
NumFrames 6
DataFrameRate 24
EulerRotationOrder ZYX
CalibrationUnits mm
RotationUnits Degrees
GlobalAxisofGravity Y
BoneLengthAxis Y
ScaleFactor 1.0
[SegmentNames&Hierarchy]
reference	GLOBAL
Hips	reference
Spine	Hips
Spine1	Spine
Neck	Spine1
Head	Neck
LeftShoulder	Spine1
LeftArm	LeftShoulder
LeftForeArm	LeftArm
LeftHand	LeftForeArm
RightShoulder	Spine1
RightArm	RightShoulder
RightForeArm	RightArm
RightHand	RightForeArm
LeftUpLeg	Hips
LeftLeg	LeftUpLeg
LeftFoot	LeftLeg
LeftToeBase	LeftFoot
RightUpLeg	Hips
RightLeg	RightUpLeg
RightFoot	RightLeg
RightToeBase	RightFoot
[BasePosition]
reference	0	0	0	0	0	0	1
Hips	0	0	0	0	0	0	1
Spine	0	0	0	0	-0	90	1
Spine1	0	0	0	0	0	0	1
Neck	0	0	0	-7.352430803	-7.352430803	90	1
Head	0	0	0	0	-0	90	1
LeftShoulder	0	0	0	0	0	0	1
LeftArm	0	0	0	0	0	0	1
LeftForeArm	0	0	0	0	0	0	1
LeftHand	0	0	0	0	0	0	1
RightShoulder	0	0	0	0	-0	180	1
RightArm	0	0	0	0	-0	180	1
RightForeArm	0	0	0	0	-0	180	1
RightHand	0	0	0	0	-0	180	1
LeftUpLeg	0	0	0	0	-0	-90	1
LeftLeg	0	0	0	0	-0	-90	1
LeftFoot	0	0	0	66.57150701	-66.57150701	-90	1
LeftToeBase	0	0	0	0	-90	0	1
RightUpLeg	0	0	0	0	-0	-90	1
RightLeg	0	0	0	0	-0	-90	1
RightFoot	0	0	0	66.57150701	-66.57150701	-90	1
RightToeBase	0	0	0	0	-90	0	1
[reference]
1	0	0	0	0	-0	0	1.0
2	0	0	0	0	-0	0	1.0
3	0	0	0	0	-0	0	1.0
4	0	0	0	0	-0	0	1.0
5	0	0	0	0	-0	0	1.0
6	0	0	0	0	-0	0	1.0
[Hips]
1	5.926480293	8.508910179	0.9425500035	1.910644531	-106.6338272	-6.893615723	1.0
2	5.926480293	8.508910179	0.9425500035	2.033289909	-106.9143677	-6.790519714	1.0
3	5.926480293	8.508910179	0.9425500035	2.751262665	-106.9752655	-7.00362587	1.0
4	5.926480293	8.508910179	0.9425500035	4.169158936	-106.6079254	-7.878293037	1.0
5	5.926480293	8.508910179	0.9434265494	8.327806473	-105.6045914	-10.90584278	1.0
6	5.926480293	8.508910179	0.9489303231	10.56555176	-104.6001129	-12.54139328	1.0
[Spine]
1	0	0.7478299737	0	-3.186422586	-3.319777012	-90.44894409	1.0
2	0	0.7478299737	0	-3.828066587	-2.959243298	-90.53612518	1.0
3	0	0.7478299737	0	-4.731612682	-2.699024677	-90.41370392	1.0
4	0	0.7478299737	0	-5.533109665	-2.910986423	-90.53688812	1.0
5	0	0.7478299737	0	-6.01904583	-3.226757288	-90.95428467	1.0
6	0	0.7478299737	0	-6.268675804	-3.102935553	-90.83007813	1.0
[Spine1]
1	0	2.049309969	0	3.083474159	-1.039774776	-2.328750372	1.0
2	0	2.049309969	0	4.013320923	-0.9026989937	-2.33130765	1.0
3	0	2.049309969	0	5.560096264	-0.7730475664	-2.6130445	1.0
4	0	2.049309969	0	6.905574799	-0.7797558308	-2.980912209	1.0
5	0	2.049309969	0	7.350824356	-0.8443343043	-3.345340014	1.0
6	0	2.049309969	0	8.138118744	-0.7093695998	-4.243993759	1.0
[Neck]
1	0	2.231709957	0	11.06819439	9.969963074	-85.94316864	1.0
2	0	2.231709957	0	9.968822479	9.837568283	-85.81248474	1.0
3	0	2.231709957	0	8.529564857	9.791139603	-85.32577515	1.0
4	0	2.231709957	0	7.01530838	10.03936958	-84.83392334	1.0
5	0	2.231709957	0	4.260798454	9.740844727	-85.03370667	1.0
6	0	2.231709957	0	2.01625061	9.223971367	-84.71660614	1.0
[Head]
1	0	1.413589954	0.1823999882	-12.32109833	3.420832872	-98.47651672	1.0
2	0	1.413589954	0.1823999882	-11.42790222	3.329265594	-97.86888123	1.0
3	0	1.413589954	0.1823999882	-11.34158134	3.311471224	-97.99980164	1.0
4	0	1.413589954	0.1823999882	-12.07652187	3.514784336	-98.31565094	1.0
5	0	1.413589954	0.1823999882	-11.02482605	3.141065121	-97.53647614	1.0
6	0	1.413589954	0.1823999882	-10.86343384	2.544431686	-96.8210144	1.0
[LeftShoulder]
1	0.3649300039	1.825889945	-0.04271000251	-0.8553906679	-5.704672337	18.94402695	1.0
2	0.3649300039	1.825889945	-0.04271000251	-2.471952438	-5.645781994	16.98311615	1.0
3	0.3649300039	1.825889945	-0.04271000251	-4.991956234	-4.970918655	15.28810596	1.0
4	0.3649300039	1.825889945	-0.04271000251	-7.27396965	-5.141164303	12.02851295	1.0
5	0.3649300039	1.825889945	-0.04271000251	-8.27733326	-4.465939999	8.515252113	1.0
6	0.3649300039	1.825889945	-0.04271000251	-9.151525497	-5.388151169	5.72370863	1.0
[LeftArm]
1	1.24003005	0	0	9.226262093	-11.75252342	-27.93827438	1.0
2	1.24003005	0	0	11.81870556	-9.984982491	-32.64902496	1.0
3	1.24003005	0	0	14.61341858	-6.945878029	-40.70863724	1.0
4	1.24003005	0	0	15.5532341	-1.420217872	-48.1924324	1.0
5	1.24003005	0	0	17.35485458	1.459665895	-55.48052979	1.0
6	1.24003005	0	0	21.75340652	3.688344717	-61.77441788	1.0
[LeftForeArm]
1	2.847419977	0	0	-9.279057503	-5.29680109	2.353594065	1.0
2	2.847419977	0	0	-8.374932289	-6.864758492	2.482007265	1.0
3	2.847419977	0	0	-9.560566902	-10.46556664	2.827332973	1.0
4	2.847419977	0	0	-10.98209381	-15.91151524	1.816538453	1.0
5	2.847419977	0	0	-11.7101469	-18.01307678	-1.096990228	1.0
6	2.847419977	0	0	-11.41637325	-17.16669846	-2.659335613	1.0
[LeftHand]
1	2.258270025	0	0	-9.165802956	-2.08200717	-0.2436873019	1.0
2	2.258270025	0	0	-8.129738808	-3.174713612	-3.484926462	1.0
3	2.258270025	0	0	-9.172637939	-4.291061878	-3.448606014	1.0
4	2.258270025	0	0	-10.53349304	-6.041091442	-3.705686331	1.0
5	2.258270025	0	0	-11.03855133	-8.775215149	-10.97085857	1.0
6	2.258270025	0	0	-10.50021362	-8.43074131	-17.7274437	1.0
[RightShoulder]
1	-0.3646599948	1.825889945	-0.04271000251	-1.879399896	4.506693363	166.3675995	1.0
2	-0.3646599948	1.825889945	-0.04271000251	-2.992160797	3.99873662	167.2451019	1.0
3	-0.3646599948	1.825889945	-0.04271000251	-4.210125446	3.304346561	168.5363159	1.0
4	-0.3646599948	1.825889945	-0.04271000251	-5.953221321	3.788661718	170.4927368	1.0
5	-0.3646599948	1.825889945	-0.04271000251	-6.672534466	3.870093346	172.4438629	1.0
6	-0.3646599948	1.825889945	-0.04271000251	-6.147402287	4.150769711	175.5873718	1.0
[RightArm]
1	-1.24003005	0	0	9.147366524	8.347251892	-157.6791382	1.0
2	-1.24003005	0	0	11.74521446	7.402105331	-152.2313232	1.0
3	-1.24003005	0	0	14.14170647	6.041360855	-143.8190002	1.0
4	-1.24003005	0	0	16.00292778	2.461909771	-134.1027985	1.0
5	-1.24003005	0	0	17.4574585	-0.6463037729	-124.3462982	1.0
6	-1.24003005	0	0	18.23726082	-1.921926975	-116.7636719	1.0
[RightForeArm]
1	-2.847419977	0	0	2.282828569	11.28942204	171.7932587	1.0
2	-2.847419977	0	0	2.066491127	12.56265354	172.3827362	1.0
3	-2.847419977	0	0	2.418542385	13.85037613	173.1155701	1.0
4	-2.847419977	0	0	1.540755868	16.0321846	174.39328	1.0
5	-2.847419977	0	0	1.29462111	17.63649559	177.549942	1.0
6	-2.847419977	0	0	4.516780376	17.34654999	182.452301	1.0
[RightHand]
1	-2.258270025	0	0	3.029244184	1.124786496	173.3155518	1.0
2	-2.258270025	0	0	2.835487604	1.440133214	174.2807007	1.0
3	-2.258270025	0	0	3.140778542	2.043996811	173.5035706	1.0
4	-2.258270025	0	0	2.160744667	2.998789072	173.8311005	1.0
5	-2.258270025	0	0	1.532181621	6.460054874	177.4598541	1.0
6	-2.258270025	0	0	4.456830025	8.120167732	184.4633789	1.0
[LeftUpLeg]
1	0.9119900465	0	0	10.41959572	-0.03586171195	90.83794403	1.0
2	0.9119900465	0	0	9.683526993	0.9645320773	91.13409424	1.0
3	0.9119900465	0	0	8.716766357	1.457690358	91.22653198	1.0
4	0.9119900465	0	0	6.552335739	0.5141094923	90.45603943	1.0
5	0.9119900465	0	0	2.520849466	-1.709715843	89.04768372	1.0
6	0.9119900465	0	0	0.5979477167	-2.288941145	89.06246948	1.0
[LeftLeg]
1	0	-4.371409893	0	4.334187031	3.778871775	88.70235443	1.0
2	0	-4.371409893	0	5.328776836	3.105944633	88.69046021	1.0
3	0	-4.371409893	0	6.495923042	2.946393013	88.87695313	1.0
4	0	-4.371409893	0	9.220039368	2.621113539	89.36713409	1.0
5	0	-4.371409893	0	13.83590412	4.140682697	89.58440399	1.0
6	0	-4.371409893	0	14.00993824	-0.255954057	87.05152893	1.0
[LeftFoot]
1	0	-3.918009996	0	-95.14219666	112.6392517	-42.71995544	1.0
2	0	-3.918009996	0	-95.58161926	112.3283386	-42.55166626	1.0
3	0	-3.918009996	0	-96.60980225	112.5001678	-42.72336197	1.0
4	0	-3.918009996	0	-93.88367462	113.835022	-38.33234406	1.0
5	0	-3.918009996	0	-94.74427032	117.1645508	-38.05500793	1.0
6	0	-3.918009996	0	-92.33465576	117.1524353	-33.9425354	1.0
[LeftToeBase]
1	0	-0.5927900076	1.367989898	0	0	0	1.0
2	0	-0.5927900076	1.367989898	0	0	0	1.0
3	0	-0.5927900076	1.367989898	0	0	0	1.0
4	0	-0.5927900076	1.367989898	0	0	0	1.0
5	0	-0.5927900076	1.367989898	0	0	0	1.0
6	0	-0.5927900076	1.367989898	0	0	0	1.0
[RightUpLeg]
1	-0.9119900465	0	0	15.44787121	-17.30546188	86.92837524	1.0
2	-0.9119900465	0	0	15.16380692	-17.19175339	87.13234711	1.0
3	-0.9119900465	0	0	14.67268848	-17.1996212	87.34922791	1.0
4	-0.9119900465	0	0	13.87624836	-16.773283	87.46076202	1.0
5	-0.9119900465	0	0	12.34735584	-16.90270233	87.0756073	1.0
6	-0.9119900465	0	0	11.76010513	-17.22136116	87.0039444	1.0
[RightLeg]
1	0	-4.371409893	0	-4.001510143	-7.191591263	94.03175354	1.0
2	0	-4.371409893	0	-4.102892876	-7.194669724	94.07278442	1.0
3	0	-4.371409893	0	-3.985863686	-6.991696358	94.0463562	1.0
4	0	-4.371409893	0	-3.908375263	-7.130629539	94.17960358	1.0
5	0	-4.371409893	0	-3.706703424	-7.448755264	94.52172852	1.0
6	0	-4.371409893	0	-3.787130594	-7.634918213	94.76774597	1.0
[RightFoot]
1	0	-3.918009996	0	35.05993271	66.08499146	81.1436615	1.0
2	0	-3.918009996	0	35.07105637	66.24600983	81.31904602	1.0
3	0	-3.918009996	0	34.12181473	66.4536438	80.92736816	1.0
4	0	-3.918009996	0	32.87004852	65.94109344	80.23805237	1.0
5	0	-3.918009996	0	31.17358017	65.8468399	78.97169495	1.0
6	0	-3.918009996	0	29.86758423	65.71833038	77.87608337	1.0
[RightToeBase]
1	0	-0.5927900076	1.367989898	0	0	0	1.0
2	0	-0.5927900076	1.367989898	0	0	0	1.0
3	0	-0.5927900076	1.367989898	0	0	0	1.0
4	0	-0.5927900076	1.367989898	0	0	0	1.0
5	0	-0.5927900076	1.367989898	0	0	0	1.0
6	0	-0.5927900076	1.367989898	0	0	0	1.0
[EndOfFile]
